<svg xmlns="http://www.w3.org/2000/svg" width="147.784" height="96.554" viewBox="0 0 147.784 96.554"><g transform="translate(-158.216 -166.891)"><text transform="translate(196 228)" fill="#76edf2" font-size="40" font-family="MarkerFelt-Thin, Marker Felt" font-weight="200"><tspan x="0" y="0">Kujang</tspan></text><g transform="translate(23.242 50.278)"><path d="M154.089,116.613A17.887,17.887,0,0,1,150.9,127.8a14.9,14.9,0,0,1-10.11,6.468s1.842,5.091-.477,13.042-8.029,18.106-3.853,25.661A27.682,27.682,0,0,0,147.7,183.82a19.18,19.18,0,0,0,11.408.61c5.774-1.7,10.167-8.252,10.167-13.385a10.582,10.582,0,0,0-3.912-8.019s-.113,9.034-4.688,11.692-11.759,1.932-12.411-7.481,17.717-19.686,17.1-32.966A20.034,20.034,0,0,0,154.089,116.613Z" fill="#c1bb2b"/><g transform="translate(144.189 127.375)"><circle cx="2" cy="2" r="2" transform="translate(8.569 0.348)" fill="#fff"/><circle cx="2" cy="2" r="2" transform="translate(-0.431 7.348)" fill="#fff"/><circle cx="2" cy="2" r="2" transform="translate(4.569 4.348)" fill="#fff"/></g><path d="M13.735,62.427a13.726,13.726,0,0,1-5.406-1.14,13.583,13.583,0,0,1-4.735-3.393C1.649,55.732-.533,51.869.117,45.74a23.444,23.444,0,0,1,1.265-5.558,24.5,24.5,0,0,1,2.252-4.618,51.744,51.744,0,0,1,5.987-7.493,42.611,42.611,0,0,0,5.453-6.87,15.855,15.855,0,0,0,1.662-3.89,14.51,14.51,0,0,0,.48-4.538,21.941,21.941,0,0,0-1.654-7.542A19.711,19.711,0,0,0,12.308,0a18.275,18.275,0,0,1,2.544,1.6,20.314,20.314,0,0,1,3.441,3.252,19.71,19.71,0,0,1,3.119,5.169,22.01,22.01,0,0,1,1.575,7.353,15.423,15.423,0,0,1-.694,5.217,23.329,23.329,0,0,1-2.207,4.92,69.978,69.978,0,0,1-6.716,9.076A66.447,66.447,0,0,0,8,43.68a16.5,16.5,0,0,0-1.636,3.375,8.414,8.414,0,0,0-.473,3.287c.2,2.947,1.041,5.191,2.487,6.672a6.533,6.533,0,0,0,4.8,1.926,10.12,10.12,0,0,0,4.98-1.41,7.461,7.461,0,0,0,2.685-2.9,15.66,15.66,0,0,0,1.447-3.793,24.616,24.616,0,0,0,.7-4.7l.009.006c.163.126.358.294.55.475,1,1.489,2.848,5.635-1.608,11.948a9.781,9.781,0,0,1-8.2,3.867h0Z" transform="translate(142.46 117.073)" fill="#e8e23c"/><ellipse cx="5.5" cy="3.5" rx="5.5" ry="3.5" transform="translate(147.758 181.722)" fill="#c1bb2b"/></g><g transform="translate(-38 -72)"><path d="M166.315,271.222v11.85s-.253,8.368,3,11.653,7.274,3.5,11.094,1.719,7.184-12.665,3.393-11.225-5.037,2.021-7.227-1.29-1.8-12.707-1.8-12.707Z" transform="translate(43.865 37.892)" fill="#ed6464"/><path d="M9.447,30.331h0A8.85,8.85,0,0,1,3,27.5C1.323,25.806.6,22.728.284,20.445A31.233,31.233,0,0,1,0,15.85V4H3V11.85a31.207,31.207,0,0,0,.28,4.594C3.6,18.728,4.323,21.806,6,23.5c1.987,2.009,3.481,2.828,5.155,2.828a9.5,9.5,0,0,0,3.939-1.11c1.694-.788,3.2-3.311,4.05-5.408-.125,2.846-2.439,8.193-5.05,9.408A11.026,11.026,0,0,1,9.447,30.331Z" transform="translate(210.175 305.114)" fill="#cc4848"/></g></g></svg>